<svg width="88" height="88" viewBox="0 0 88 88" fill="none" xmlns="http://www.w3.org/2000/svg">
<path d="M42.963 0.500902C43.3477 -0.166972 44.3115 -0.166971 44.6961 0.500903L50.7633 11.0349C51.0538 11.5394 51.7123 11.69 52.1933 11.3619L62.3419 4.43936C62.9812 4.00324 63.8524 4.42752 63.9032 5.19979L64.6944 17.2202C64.7331 17.8071 65.2674 18.2341 65.8483 18.1423L78.032 16.2177C78.8035 16.0958 79.4106 16.8659 79.1121 17.5876L74.5106 28.7121C74.283 29.2624 74.5838 29.8885 75.1557 30.0546L86.9378 33.4778C87.6933 33.6973 87.9111 34.6629 87.3231 35.1856L78.2506 43.2489C77.803 43.6467 77.803 44.346 78.2506 44.7438L87.3231 52.8072C87.9111 53.3298 87.6933 54.2954 86.9378 54.5149L75.1557 57.9381C74.5838 58.1043 74.283 58.7303 74.5106 59.2806L79.1121 70.4051C79.4106 71.1269 78.8035 71.897 78.032 71.7751L65.8483 69.8504C65.2674 69.7587 64.7331 70.1856 64.6944 70.7725L63.9032 82.7929C63.8524 83.5652 62.9812 83.9895 62.3419 83.5534L52.1933 76.6308C51.7123 76.3027 51.0538 76.4533 50.7633 76.9579L44.6961 87.4918C44.3115 88.1597 43.3477 88.1597 42.963 87.4918L36.8959 76.9579C36.6053 76.4533 35.9469 76.3027 35.4659 76.6308L25.3173 83.5534C24.6779 83.9895 23.8068 83.5652 23.7559 82.7929L22.9647 70.7725C22.9261 70.1856 22.3918 69.7587 21.8109 69.8504L9.62723 71.7751C8.85572 71.897 8.24858 71.1269 8.54712 70.4051L13.1485 59.2806C13.3762 58.7303 13.0753 58.1043 12.5035 57.9381L0.721379 54.5149C-0.0341029 54.2954 -0.25197 53.3298 0.33607 52.8072L9.40859 44.7438C9.85617 44.346 9.85617 43.6467 9.40859 43.2489L0.33607 35.1856C-0.25197 34.6629 -0.0341043 33.6973 0.721377 33.4778L12.5035 30.0546C13.0753 29.8885 13.3762 29.2624 13.1485 28.7121L8.54712 17.5876C8.24858 16.8659 8.85572 16.0958 9.62723 16.2177L21.8109 18.1423C22.3918 18.2341 22.9261 17.8071 22.9647 17.2202L23.7559 5.19979C23.8068 4.42753 24.6779 4.00324 25.3173 4.43936L35.4659 11.3619C35.9469 11.69 36.6053 11.5394 36.8959 11.0349L42.963 0.500902Z" fill="#ECD979"/>
</svg>
